HIERARCHY
ROOT Hips
{
	OFFSET 292.461487 92.071327 404.531097
	CHANNELS 6 Xposition Yposition Zposition Zrotation Yrotation Xrotation 
	JOINT LeftUpLeg
	{
		OFFSET 0.103459 1.857814 10.548504
		CHANNELS 3 Zrotation Yrotation Xrotation
		JOINT LeftLeg
		{
			OFFSET 43.500000 -0.000004 -0.000011
			CHANNELS 3 Zrotation Yrotation Xrotation
			JOINT LeftFoot
			{
				OFFSET 42.372196 -0.000004 0.000004
				CHANNELS 3 Zrotation Yrotation Xrotation
				JOINT LeftToe
				{
					OFFSET 17.300003 0.000001 -0.000008
					CHANNELS 3 Zrotation Yrotation Xrotation
					End Site
					{
						OFFSET 0.000000 0.000000 0.000000
					}
				}
			}
		}
	}
	JOINT RightUpLeg
	{
		OFFSET 0.103457 1.857841 -10.548511
		CHANNELS 3 Zrotation Yrotation Xrotation
		JOINT RightLeg
		{
			OFFSET 43.500042 -0.000038 0.000000
			CHANNELS 3 Zrotation Yrotation Xrotation
			JOINT RightFoot
			{
				OFFSET 42.372269 -0.000023 0.000011
				CHANNELS 3 Zrotation Yrotation Xrotation
				JOINT RightToe
				{
					OFFSET 17.300003 -0.000001 0.000023
					CHANNELS 3 Zrotation Yrotation Xrotation
					End Site
					{
						OFFSET 0.000000 0.000000 0.000000
					}
				}
			}
		}
	}
	JOINT Spine
	{
		OFFSET 6.901971 -2.603744 -0.000012
		CHANNELS 3 Zrotation Yrotation Xrotation
		JOINT Spine1
		{
			OFFSET 12.588097 -0.000002 0.000018
			CHANNELS 3 Zrotation Yrotation Xrotation
			JOINT Spine2
			{
				OFFSET 12.343208 0.000014 -0.000019
				CHANNELS 3 Zrotation Yrotation Xrotation
				JOINT Neck
				{
					OFFSET 25.832897 0.000008 0.000016
					CHANNELS 3 Zrotation Yrotation Xrotation
					JOINT Head
					{
						OFFSET 11.766600 -0.000006 0.000008
						CHANNELS 3 Zrotation Yrotation Xrotation
						End Site
						{
							OFFSET 0.000000 0.000000 0.000000
						}
					}
				}
				JOINT LeftShoulder
				{
					OFFSET 19.745909 -1.480356 6.000120
					CHANNELS 3 Zrotation Yrotation Xrotation
					JOINT LeftArm
					{
						OFFSET 11.284115 -0.000000 -0.000025
						CHANNELS 3 Zrotation Yrotation Xrotation
						JOINT LeftForeArm
						{
							OFFSET 33.000057 0.000003 0.000029
							CHANNELS 3 Zrotation Yrotation Xrotation
							JOINT LeftHand
							{
								OFFSET 25.200006 0.000029 0.000011
								CHANNELS 3 Zrotation Yrotation Xrotation
								End Site
								{
									OFFSET 0.000000 0.000000 0.000000
								}
							}
						}
					}
				}
				JOINT RightShoulder
				{
					OFFSET 19.746088 -1.480379 -6.000049
					CHANNELS 3 Zrotation Yrotation Xrotation
					JOINT RightArm
					{
						OFFSET 11.284159 -0.000019 -0.000011
						CHANNELS 3 Zrotation Yrotation Xrotation
						JOINT RightForeArm
						{
							OFFSET 33.000076 -0.000001 0.000001
							CHANNELS 3 Zrotation Yrotation Xrotation
							JOINT RightHand
							{
								OFFSET 25.199781 0.000139 0.000430
								CHANNELS 3 Zrotation Yrotation Xrotation
								End Site
								{
									OFFSET 0.000000 0.000000 0.000000
								}
							}
						}
					}
				}
			}
		}
	}
}
MOTION
Frames: 9
Frame Time: 0.033333
-92.128403 89.829910 -534.178589 87.942258 0.118274 150.540498 163.395433 -5.566302 168.967815 -36.741046 -3.394668 -2.587208 93.132546 1.885795 0.602670 21.454557 0.003092 0.000000 154.982074 3.007290 178.464182 -58.970330 -1.366554 1.561879 83.961938 0.238619 6.033898 21.454565 -0.003096 -0.000018 11.862077 -2.541645 -0.460983 13.751280 -5.010313 -1.222609 13.431926 -5.017465 -1.192249 26.479201 0.085685 3.605332 -34.233246 -7.311110 7.944315 165.981820 -80.205573 12.690605 -36.229038 42.256389 12.326777 -35.803486 -18.498114 1.579969 5.743165 -17.058372 -7.234502 165.763569 73.374728 -13.210280 -28.484010 -55.359438 -22.494752 -48.372564 21.872002 -2.186231 2.751054 12.954994 -12.397209 
-89.714256 89.798920 -533.532715 88.422919 0.156149 151.881414 165.334414 -4.794295 169.401628 -36.630407 -3.415346 -2.195772 94.047682 1.651253 0.875344 21.454553 0.003093 -0.000000 153.982858 2.413606 179.207143 -54.509639 -1.102775 1.925260 84.680405 -0.206494 5.365197 21.454553 -0.003117 -0.000018 11.844210 -2.476742 -0.513330 13.716159 -4.874999 -1.318466 13.396898 -4.882740 -1.288922 26.581322 0.970309 4.357091 -33.864426 -7.279480 8.654714 164.545664 -79.905796 14.159654 -36.351814 42.459103 12.344277 -35.416474 -18.513646 1.571809 5.423361 -16.910030 -6.905679 165.541505 73.317443 -13.440085 -29.077191 -55.300292 -21.799095 -49.008626 22.107005 -2.223009 2.756537 12.579720 -13.880803 
-87.209961 89.750793 -532.819092 88.939657 0.088448 153.141597 167.433208 -3.983703 169.673565 -36.365676 -3.328370 -1.805262 94.822000 1.407583 1.089666 21.454553 0.003092 0.000000 153.114687 2.141402 -179.742384 -49.254803 -1.093625 1.958551 84.636815 -0.157578 5.750700 21.454558 -0.003108 -0.000018 11.800422 -2.415772 -0.564132 13.629060 -4.748102 -1.410691 13.309863 -4.756397 -1.381926 26.527135 1.997568 4.955747 -33.325159 -7.319757 9.206755 163.050699 -79.920890 15.675339 -36.421092 43.091049 12.252007 -34.915022 -18.155602 1.536983 4.973634 -17.684490 -6.663375 165.772994 73.228746 -13.206569 -29.324290 -55.254270 -21.829843 -49.626942 22.398273 -2.263306 2.218361 11.914633 -15.463611 
-84.607353 89.755768 -532.076416 89.422401 0.108784 154.167123 169.862543 -3.370894 169.927470 -35.689299 -3.382109 -1.496787 95.402184 1.224346 1.316902 21.454553 0.003088 -0.000000 152.364445 1.775302 -178.792482 -43.460398 -1.085218 1.721406 82.789222 0.156118 6.059535 21.454562 -0.003106 -0.000015 11.735580 -2.330379 -0.589734 13.498150 -4.575889 -1.448991 13.179023 -4.584414 -1.421266 26.422182 2.795067 5.469956 -32.806812 -7.256806 9.631395 162.334390 -79.930200 16.401384 -36.209681 43.963916 12.343744 -34.527416 -17.836373 1.507472 4.113426 -18.978840 -6.277524 166.084328 73.162528 -12.890377 -29.257850 -55.267821 -21.938981 -50.322259 22.405858 -2.287293 1.661602 11.226843 -16.763521 
-81.932022 89.673012 -531.305420 89.889709 -0.057094 155.059023 172.343185 -2.687394 170.245115 -34.895361 -3.548744 -1.272951 95.967429 1.095618 1.517621 21.454551 0.003091 -0.000000 151.736040 1.594802 -178.327100 -37.411986 -0.837255 1.212520 80.906384 0.514767 5.712868 21.454563 -0.003102 -0.000016 11.614754 -2.256620 -0.628747 13.255895 -4.426191 -1.513501 12.936883 -4.435114 -1.486689 26.298984 3.413460 5.942116 -32.082041 -7.253027 10.037760 161.852589 -79.847623 16.893664 -35.282220 45.018774 12.972453 -34.628574 -17.654956 1.498099 3.187255 -20.989445 -5.826769 166.329819 73.168989 -12.638638 -28.815127 -55.482480 -22.012586 -51.028801 22.196949 -2.297224 1.070377 10.293730 -18.546422 
-79.131401 89.523720 -530.467407 90.380731 -0.362517 155.920228 175.032791 -1.866701 170.617702 -33.807787 -3.628297 -1.085361 96.454791 0.976363 1.598840 21.454551 0.003094 -0.000000 151.371909 1.690401 -178.882764 -31.345545 -0.276364 0.582673 80.040706 1.171080 6.472204 21.454560 -0.003111 -0.000018 11.462294 -2.187855 -0.685786 12.951060 -4.285045 -1.613711 12.632138 -4.294577 -1.587751 26.007607 4.064148 6.397391 -30.991010 -7.556753 10.551230 161.510833 -79.749897 17.244786 -33.648497 46.261602 14.599437 -35.325206 -17.836569 1.525942 2.720644 -23.150436 -6.174819 166.932624 73.147651 -12.021897 -28.180392 -55.807792 -22.375829 -51.356390 22.075754 -2.300258 0.835483 9.685245 -20.175499 
-76.170563 89.367653 -529.563416 90.885011 -0.614770 156.861510 178.161359 -1.028596 171.303549 -32.090387 -3.622703 -0.986526 96.781581 0.901489 1.537011 21.454553 0.003091 0.000000 151.327499 1.817396 179.567203 -25.566653 0.306213 0.036683 79.404542 1.490296 6.128421 21.454555 -0.003105 -0.000018 11.284614 -2.089862 -0.762110 12.595655 -4.084197 -1.748663 12.276823 -4.094546 -1.723926 25.777346 4.582207 6.755414 -29.701002 -7.773713 10.899420 162.382201 -79.627465 16.366518 -31.773982 47.506606 16.308023 -36.229021 -17.783007 1.543910 2.689127 -24.551646 -6.937346 168.020290 72.953052 -10.914517 -27.300210 -55.924250 -23.065697 -51.102973 21.678650 -2.264590 0.373861 9.513150 -20.903077 
-73.026352 89.154984 -528.563721 91.470078 -0.879076 157.985226 -178.206274 -0.169297 172.663166 -29.711340 -3.684752 -1.065082 96.921450 0.937684 1.370060 21.454557 0.003093 0.000000 151.705209 2.143707 176.859238 -20.436336 0.940890 -0.067040 78.812132 1.574043 6.110691 21.454562 -0.003110 -0.000017 11.081892 -1.968302 -0.887345 12.190946 -3.832023 -1.978525 11.872265 -3.843765 -1.955320 25.829887 5.013607 7.001039 -28.583584 -7.980158 11.128531 164.608911 -79.433324 14.115253 -29.763212 48.751643 18.506734 -36.906200 -17.858499 1.565221 2.647156 -24.580017 -7.413851 169.923181 72.881486 -8.965884 -26.586450 -56.112005 -24.089381 -50.298462 21.254577 -2.208567 0.008472 9.945286 -19.230947 
-69.706169 88.786926 -527.426514 92.114308 -1.418287 159.213923 -174.059612 0.795199 173.734495 -26.551158 -3.532493 -0.914718 96.862109 0.808186 1.127443 21.454555 0.003094 0.000000 152.204796 2.773699 173.643148 -17.079718 1.315301 -0.235135 79.480692 1.788132 6.688938 21.454557 -0.003109 -0.000018 10.815928 -1.903425 -1.144153 11.664926 -3.681680 -2.475874 11.346427 -3.696424 -2.453575 26.085884 5.245654 7.087966 -27.657709 -8.232946 11.227771 166.447708 -79.369974 12.250944 -26.556740 50.493136 20.611725 -37.670525 -18.088865 1.599084 2.077068 -23.066191 -6.379711 172.407498 72.507369 -6.428840 -26.523776 -55.766049 -26.136574 -48.222310 21.014921 -2.123791 0.357558 9.782873 -15.076435 
